# Blender v3.0.0 OBJ File: 'barel.blend'
# www.blender.org
mtllib barel.mtl
o Cylinder
v 0.000000 0.015950 -1.000000
v 0.000000 3.493209 -1.000000
v 0.707107 0.015950 -0.707107
v 0.707107 3.493209 -0.707107
v 1.000000 0.015950 0.000000
v 1.000000 3.493209 0.000000
v 0.707107 0.015950 0.707107
v 0.707107 3.493209 0.707107
v -0.000000 0.015950 1.000000
v -0.000000 3.493209 1.000000
v -0.707107 0.015950 0.707107
v -0.707107 3.493209 0.707107
v -1.000000 0.015950 -0.000000
v -1.000000 3.493209 -0.000000
v -0.707107 0.015950 -0.707107
v -0.707107 3.493209 -0.707107
v 0.000000 1.035751 -1.240335
v 0.000000 2.473408 -1.240335
v 0.877050 2.473407 -0.877050
v 0.877050 1.035751 -0.877050
v 1.240335 2.473407 0.000000
v 1.240335 1.035751 0.000000
v 0.877050 2.473407 0.877050
v 0.877050 1.035751 0.877050
v -0.000000 2.473407 1.240335
v -0.000000 1.035751 1.240335
v -0.877049 2.473407 0.877050
v -0.877049 1.035751 0.877050
v -1.240335 2.473407 -0.000000
v -1.240335 1.035751 -0.000000
v -0.877050 2.473407 -0.877049
v -0.877050 1.035751 -0.877049
v 0.603023 3.514763 -0.603023
v 0.000000 3.514763 -0.852803
v 0.852803 3.514763 0.000000
v 0.603023 3.514763 0.603023
v -0.000000 3.514763 0.852803
v -0.603023 3.514763 0.603023
v -0.852803 3.514763 -0.000000
v -0.603023 3.514763 -0.603023
v 0.603023 3.406444 -0.603023
v 0.000000 3.406444 -0.852803
v 0.852803 3.406444 0.000000
v 0.603023 3.406444 0.603023
v -0.000000 3.406444 0.852803
v -0.603023 3.406444 0.603023
v -0.852803 3.406444 -0.000000
v -0.603023 3.406444 -0.603023
v 0.000000 -0.000285 -0.791451
v 0.559641 -0.000285 -0.559641
v 0.791451 -0.000285 0.000000
v 0.559641 -0.000285 0.559641
v -0.000000 -0.000285 0.791451
v -0.559640 -0.000285 0.559641
v -0.791451 -0.000285 -0.000000
v -0.559641 -0.000285 -0.559640
v 0.000000 0.142652 -0.791451
v 0.559641 0.142652 -0.559641
v 0.791451 0.142652 0.000000
v 0.559641 0.142652 0.559641
v -0.000000 0.142652 0.791451
v -0.559640 0.142652 0.559641
v -0.791451 0.142652 -0.000000
v -0.559641 0.142652 -0.559640
v 0.000000 1.146340 -1.240335
v 0.877050 1.146340 -0.877050
v 1.240335 1.146340 0.000000
v 0.877050 1.146340 0.877050
v -0.000000 1.146340 1.240335
v -0.877049 1.146340 0.877050
v -1.240335 1.146340 -0.000000
v -0.877050 1.146340 -0.877049
v 0.000000 2.344387 -1.240335
v 0.877050 2.344387 -0.877050
v 1.240335 2.344387 0.000000
v 0.877050 2.344387 0.877050
v -0.000000 2.344387 1.240335
v -0.877049 2.344387 0.877050
v -1.240335 2.344387 -0.000000
v -0.877050 2.344387 -0.877049
v 0.015315 2.364639 -1.316629
v 0.015315 2.498055 -1.316629
v 0.922247 1.125774 -0.940966
v 0.922247 1.011417 -0.940966
v 1.297910 1.125774 -0.034034
v 1.297910 1.011417 -0.034034
v 0.922247 1.125774 0.872897
v 0.922247 1.011417 0.872897
v 0.015315 1.125774 1.248560
v 0.015315 1.011417 1.248560
v -0.891616 1.125774 0.872897
v -0.891616 1.011417 0.872897
v -1.267279 1.125774 -0.034034
v -1.267279 1.011417 -0.034034
v -0.891616 1.125774 -0.940966
v -0.891616 1.011417 -0.940966
v 0.015315 1.011417 -1.316629
v -0.891616 2.498055 -0.940966
v -1.267279 2.498055 -0.034034
v -0.891616 2.498055 0.872897
v 0.015315 2.498055 1.248560
v 0.922247 2.498055 0.872897
v 1.297910 2.498055 -0.034034
v 0.922247 2.498055 -0.940966
v 0.015315 1.125774 -1.316629
v 0.922247 2.364639 -0.940966
v 1.297910 2.364639 -0.034034
v 0.922247 2.364639 0.872897
v 0.015315 2.364639 1.248560
v -0.891616 2.364639 0.872897
v -1.267279 2.364639 -0.034034
v -0.891616 2.364639 -0.940966
vt 0.819916 0.216641
vt 0.834697 0.051880
vt 0.958348 0.051821
vt 0.973285 0.216568
vt 0.765626 0.054187
vt 0.731542 0.211486
vt 0.648084 0.211569
vt 0.662110 0.054290
vt 0.530056 0.211687
vt 0.515716 0.054437
vt 0.446598 0.211771
vt 0.412199 0.054540
vt 0.817861 0.217638
vt 0.832642 0.052878
vt 0.956293 0.052820
vt 0.971230 0.217565
vt 0.765308 0.050440
vt 0.731043 0.207699
vt 0.647585 0.207687
vt 0.661792 0.050424
vt 0.747812 0.420853
vt 0.796306 0.469359
vt 0.784181 0.474425
vt 0.742825 0.433059
vt 0.529557 0.207669
vt 0.515397 0.050403
vt 0.446099 0.207657
vt 0.411881 0.050387
vt 0.630507 0.469285
vt 0.679024 0.420766
vt 0.686169 0.438040
vt 0.647770 0.476440
vt 0.445306 0.205859
vt 0.411402 0.048519
vt 0.514918 0.048731
vt 0.528764 0.206029
vt 0.695677 0.913794
vt 0.915339 0.914545
vt 0.928456 0.922554
vt 0.701309 0.921777
vt 0.959200 0.052672
vt 0.974059 0.217429
vt 0.820690 0.217429
vt 0.835549 0.052672
vt 0.150454 0.225036
vt 0.265817 0.220627
vt 0.268192 0.229814
vt 0.148899 0.234374
vt 0.639408 0.208355
vt 0.655287 0.051247
vt 0.758797 0.052379
vt 0.722861 0.209267
vt 0.403516 0.948534
vt 0.403516 0.844930
vt 0.406206 0.843288
vt 0.406206 0.950422
vt 0.521386 0.207081
vt 0.508901 0.049668
vt 0.949516 0.193304
vt 0.949516 0.089700
vt 0.952171 0.087812
vt 0.952171 0.194946
vt 0.437933 0.206193
vt 0.405390 0.048566
vt 0.470628 0.926150
vt 0.690291 0.926923
vt 0.697178 0.935014
vt 0.470031 0.934214
vt 0.957739 0.052672
vt 0.972598 0.217429
vt 0.819229 0.217429
vt 0.834088 0.052672
vt 0.704005 0.910112
vt 0.923668 0.910907
vt 0.918716 0.918853
vt 0.691569 0.918030
vt 0.646792 0.206282
vt 0.661312 0.049044
vt 0.764828 0.049276
vt 0.730250 0.206469
vt 0.148648 0.224040
vt 0.063860 0.144130
vt 0.059502 0.150904
vt 0.147179 0.233537
vt 0.059707 0.034245
vt 0.064093 0.149663
vt 0.059828 0.156359
vt 0.055293 0.037008
vt 0.952829 0.470453
vt 0.952824 0.420083
vt 0.964646 0.420083
vt 0.964651 0.470453
vt 0.630737 0.538009
vt 0.630737 0.469396
vt 0.642983 0.474456
vt 0.642983 0.532970
vt 0.796306 0.537972
vt 0.747812 0.586500
vt 0.742825 0.574323
vt 0.784181 0.532939
vt 0.679231 0.420868
vt 0.684339 0.433072
vt 0.679231 0.586515
vt 0.684339 0.574336
vt 0.239220 0.849477
vt 0.127686 0.849502
vt 0.048820 0.770616
vt 0.048820 0.659029
vt 0.127686 0.580107
vt 0.239220 0.580083
vt 0.318087 0.658969
vt 0.318087 0.770555
vt 0.962092 0.470529
vt 0.962088 0.520899
vt 0.950266 0.520900
vt 0.950270 0.470530
vt 0.954435 0.528088
vt 0.954435 0.456854
vt 0.966257 0.456854
vt 0.966257 0.528088
vt 0.952829 0.541687
vt 0.964651 0.541687
vt 0.965468 0.514889
vt 0.965468 0.586123
vt 0.953647 0.586123
vt 0.953647 0.514889
vt 0.962092 0.592133
vt 0.950270 0.592134
vt 0.696053 0.973414
vt 0.696053 0.923044
vt 0.707875 0.923044
vt 0.707875 0.973414
vt 0.952824 0.592057
vt 0.964646 0.592057
vt 0.965256 0.477296
vt 0.965256 0.543405
vt 0.949657 0.543405
vt 0.949657 0.477296
vt 0.796154 0.469285
vt 0.796154 0.537900
vt 0.778872 0.530745
vt 0.778872 0.476440
vt 0.679024 0.586418
vt 0.630507 0.537900
vt 0.647770 0.530745
vt 0.686169 0.569145
vt 0.747637 0.420767
vt 0.740473 0.438040
vt 0.747637 0.586418
vt 0.740473 0.569145
vt 0.325496 0.345319
vt 0.325496 0.465719
vt 0.240362 0.550856
vt 0.119964 0.550856
vt 0.034829 0.465719
vt 0.034829 0.345319
vt 0.119964 0.260183
vt 0.240362 0.260183
vt 0.967234 0.485145
vt 0.967234 0.551254
vt 0.951634 0.551254
vt 0.951634 0.485145
vt 0.965215 0.518581
vt 0.965215 0.584690
vt 0.949615 0.584690
vt 0.949615 0.518581
vt 0.966827 0.504041
vt 0.966827 0.550787
vt 0.951227 0.550787
vt 0.951227 0.504041
vt 0.965252 0.590151
vt 0.949652 0.590151
vt 0.965252 0.430549
vt 0.949652 0.430549
vt 0.967234 0.438398
vt 0.951634 0.438398
vt 0.966827 0.437931
vt 0.951227 0.437931
vt 0.059372 0.026708
vt 0.054861 0.029481
vt 0.063813 0.142875
vt 0.059324 0.025453
vt 0.054815 0.028264
vt 0.059456 0.149686
vt 0.173494 0.895514
vt 0.393157 0.896320
vt 0.388210 0.902930
vt 0.161063 0.902097
vt 0.148769 0.228159
vt 0.264132 0.223749
vt 0.266682 0.232969
vt 0.147388 0.237528
vt 0.065779 0.146541
vt 0.061339 0.153204
vt 0.703807 0.897414
vt 0.709444 0.904061
vt 0.264021 0.218374
vt 0.148601 0.222786
vt 0.147133 0.232320
vt 0.266486 0.227758
vt 0.622999 0.603189
vt 0.621152 0.427020
vt 0.760745 0.425557
vt 0.762591 0.601725
vt 0.859452 0.424532
vt 0.861299 0.600700
vt 0.622712 0.594158
vt 0.620866 0.417990
vt 0.760458 0.416527
vt 0.762305 0.592695
vt 0.859165 0.415492
vt 0.861012 0.591660
vt 0.616277 0.594057
vt 0.614430 0.417888
vt 0.754023 0.416425
vt 0.755870 0.592593
vt 0.852730 0.415404
vt 0.854577 0.591573
vt 0.754435 0.420614
vt 0.754154 0.596792
vt 0.614554 0.596570
vt 0.614835 0.420392
vt 0.524292 0.604233
vt 0.522445 0.428065
vt 0.924852 0.898204
vt 0.924699 0.941864
vt 0.697551 0.941087
vt 0.697705 0.897427
vt 0.383900 0.946042
vt 0.384054 0.902383
vt 0.705288 0.903514
vt 0.705134 0.947174
vt 0.388056 0.946589
vt 0.160909 0.945756
vt 0.709290 0.947720
vt 0.469470 0.952539
vt 0.469624 0.908879
vt 0.696771 0.909679
vt 0.696617 0.953338
vt 0.148236 0.951407
vt 0.148389 0.907748
vt 0.376471 0.896296
vt 0.376317 0.939955
vt 0.149170 0.939132
vt 0.149324 0.895473
vt 0.738979 0.898065
vt 0.738848 0.935487
vt 0.417614 0.934356
vt 0.417745 0.896934
vt 0.190467 0.933533
vt 0.190598 0.896111
vt 0.704858 0.905625
vt 0.704727 0.943046
vt 0.383492 0.941915
vt 0.383624 0.904493
vt 0.156345 0.941115
vt 0.156477 0.903693
vt 0.930812 0.901035
vt 0.930680 0.938457
vt 0.609446 0.937326
vt 0.609577 0.899904
vt 0.382299 0.936493
vt 0.382431 0.899071
vt 0.389976 0.943088
vt 0.390108 0.905666
vt 0.711342 0.906798
vt 0.711210 0.944220
vt 0.966127 0.898843
vt 0.965995 0.936264
vt 0.344290 0.135895
vt 0.349339 0.142196
vt 0.700877 0.912914
vt 0.920540 0.913687
vt 0.921080 0.921756
vt 0.693933 0.920956
vt 0.339904 0.020477
vt 0.344804 0.022845
vt 0.337974 0.014802
vt 0.342463 0.132224
vt 0.347600 0.138673
vt 0.342958 0.017250
vt 0.264069 0.219629
vt 0.266533 0.228975
vt 0.376553 0.948621
vt 0.156890 0.947847
vt 0.342604 0.139018
vt 0.338219 0.023599
vt 0.343293 0.025999
vt 0.347828 0.145350
vt 0.342510 0.133479
vt 0.347646 0.139890
vt 0.924996 0.945167
vt 0.614346 0.944073
vt 0.338022 0.016057
vt 0.343005 0.018467
vt 0.927274 0.920442
vt 0.707611 0.919668
vt 0.700719 0.912914
vt 0.927866 0.913713
vt 0.923470 0.898156
vt 0.936592 0.904828
vt 0.061393 0.031122
vt 0.056803 0.033853
vn 0.3739 0.2127 -0.9027
vn 0.9027 0.2127 -0.3739
vn 0.9027 0.2127 0.3739
vn 0.3739 0.2127 0.9027
vn -0.3739 0.2127 0.9027
vn -0.9027 0.2127 0.3739
vn 0.0599 0.9877 0.1446
vn -0.9027 0.2127 -0.3739
vn -0.3739 0.2127 -0.9027
vn 0.0776 -0.9965 -0.0321
vn -0.3739 -0.2127 -0.9027
vn -0.3349 -0.4840 -0.8084
vn -0.9027 -0.2127 -0.3739
vn 0.0995 0.9656 -0.2403
vn -0.9027 -0.2127 0.3739
vn 0.3817 0.0703 -0.9216
vn -0.3739 -0.2127 0.9027
vn 0.3817 -0.0712 -0.9215
vn 0.3739 -0.2127 0.9027
vn 0.8324 0.4338 -0.3448
vn 0.9027 -0.2127 0.3739
vn 0.8304 -0.4384 -0.3440
vn 0.9027 -0.2127 -0.3739
vn -0.1144 -0.9542 -0.2763
vn 0.3739 -0.2127 -0.9027
vn 0.5035 0.8384 0.2086
vn -0.3827 0.0000 -0.9239
vn -0.1446 0.9877 -0.0599
vn 0.1446 0.9877 -0.0599
vn -0.0599 0.9877 0.1446
vn -0.0599 0.9877 -0.1446
vn 0.0599 0.9877 -0.1446
vn 0.1446 0.9877 0.0599
vn -0.1446 0.9877 0.0599
vn 0.0000 1.0000 0.0000
vn -0.9239 0.0000 0.3827
vn 0.9239 0.0000 0.3827
vn 0.3827 0.0000 -0.9239
vn -0.9239 0.0000 -0.3827
vn -0.3827 0.0000 0.9239
vn 0.3827 0.0000 0.9239
vn 0.9239 0.0000 -0.3827
vn -0.0321 -0.9965 0.0776
vn -0.0321 -0.9965 -0.0776
vn 0.0321 -0.9965 -0.0776
vn 0.0776 -0.9965 0.0321
vn -0.0776 -0.9965 0.0321
vn 0.0321 -0.9965 0.0776
vn -0.0776 -0.9965 -0.0321
vn 0.0000 -1.0000 0.0000
vn -0.4353 -0.8821 -0.1803
vn 0.4990 -0.8416 0.2067
vn -0.7971 -0.5056 0.3302
vn -0.1176 0.9516 0.2838
vn -0.1160 0.9529 -0.2802
vn 0.1364 0.9343 0.3292
vn -0.3813 -0.0855 0.9205
vn -0.1162 -0.9528 0.2806
vn 0.2740 0.9550 -0.1135
vn -0.3359 0.4793 -0.8109
vn 0.4211 0.8901 0.1744
vn -0.4787 -0.8553 -0.1983
vn 0.0981 -0.9666 -0.2369
vn 0.3202 0.5476 0.7730
vn -0.4832 0.8523 -0.2001
vn 0.2702 -0.9563 -0.1119
vn -0.3813 0.0842 0.9206
vn -0.3187 -0.9386 0.1320
vn 0.4159 -0.8929 0.1723
vn -0.8002 0.4998 0.3315
vn -0.3223 0.9372 0.1335
vn 0.3187 -0.5535 0.7694
vn 0.1349 -0.9359 0.3256
vn -0.4405 0.8790 -0.1825
usemtl None
s off
f 18/1/1 2/2/1 4/3/1 19/4/1
f 19/5/2 4/6/2 6/7/2 21/8/2
f 21/8/3 6/7/3 8/9/3 23/10/3
f 23/10/4 8/9/4 10/11/4 25/12/4
f 25/13/5 10/14/5 12/15/5 27/16/5
f 27/17/6 12/18/6 14/19/6 29/20/6
f 10/21/7 8/22/7 36/23/7 37/24/7
f 29/20/8 14/19/8 16/25/8 31/26/8
f 31/26/9 16/25/9 2/27/9 18/28/9
f 3/29/10 5/30/10 51/31/10 50/32/10
f 15/33/11 32/34/11 17/35/11 1/36/11
f 26/37/12 24/38/12 88/39/12 90/40/12
f 13/41/13 30/42/13 32/43/13 15/44/13
f 65/45/14 66/46/14 83/47/14 105/48/14
f 11/49/15 28/50/15 30/51/15 13/52/15
f 25/53/16 27/54/16 100/55/16 101/56/16
f 9/57/17 26/58/17 28/50/17 11/49/17
f 28/59/18 26/60/18 90/61/18 92/62/18
f 7/63/19 24/64/19 26/58/19 9/57/19
f 27/65/20 29/66/20 99/67/20 100/68/20
f 5/69/21 22/70/21 24/71/21 7/72/21
f 30/73/22 28/74/22 92/75/22 94/76/22
f 3/77/23 20/78/23 22/79/23 5/80/23
f 73/81/24 80/82/24 112/83/24 81/84/24
f 1/36/25 17/35/25 20/78/25 3/77/25
f 29/85/26 31/86/26 98/87/26 99/88/26
f 37/89/27 36/90/27 44/91/27 45/92/27
f 16/93/28 14/94/28 39/95/28 40/96/28
f 6/97/29 4/98/29 33/99/29 35/100/29
f 12/101/30 10/21/30 37/24/30 38/102/30
f 2/103/31 16/93/31 40/96/31 34/104/31
f 4/98/32 2/103/32 34/104/32 33/99/32
f 8/22/33 6/97/33 35/100/33 36/23/33
f 14/94/34 12/101/34 38/102/34 39/95/34
f 41/105/35 42/106/35 48/107/35 47/108/35 46/109/35 45/110/35 44/111/35 43/112/35
f 35/113/36 33/114/36 41/115/36 43/116/36
f 40/117/37 39/118/37 47/119/37 48/120/37
f 38/121/38 37/89/38 45/92/38 46/122/38
f 36/123/39 35/124/39 43/125/39 44/126/39
f 33/114/40 34/127/40 42/128/40 41/115/40
f 34/129/41 40/130/41 48/131/41 42/132/41
f 39/133/42 38/121/42 46/122/42 47/134/42
f 53/135/38 54/136/38 62/137/38 61/138/38
f 9/139/43 11/140/43 54/141/43 53/142/43
f 15/143/44 1/144/44 49/145/44 56/146/44
f 1/144/45 3/29/45 50/32/45 49/145/45
f 5/30/46 7/147/46 52/148/46 51/31/46
f 11/140/47 13/149/47 55/150/47 54/141/47
f 7/147/48 9/139/48 53/142/48 52/148/48
f 13/149/49 15/143/49 56/146/49 55/150/49
f 57/151/50 58/152/50 59/153/50 60/154/50 61/155/50 62/156/50 63/157/50 64/158/50
f 51/159/39 52/160/39 60/161/39 59/162/39
f 49/163/40 50/164/40 58/165/40 57/166/40
f 56/167/41 49/168/41 57/169/41 64/170/41
f 54/136/42 55/171/42 63/172/42 62/137/42
f 52/173/27 53/135/27 61/138/27 60/174/27
f 50/175/36 51/159/36 59/162/36 58/176/36
f 55/177/37 56/167/37 64/170/37 63/178/37
f 80/82/51 79/179/51 111/180/51 112/83/51
f 32/181/52 30/182/52 94/183/52 96/184/52
f 79/185/53 78/186/53 110/187/53 111/188/53
f 18/189/54 19/190/54 104/191/54 82/192/54
f 72/193/55 65/45/55 105/48/55 95/194/55
f 31/86/56 18/189/56 82/192/56 98/87/56
f 78/186/57 77/195/57 109/196/57 110/187/57
f 20/197/58 17/198/58 97/199/58 84/200/58
f 65/201/38 73/202/38 74/203/38 66/204/38
f 66/204/42 74/203/42 75/205/42 67/206/42
f 67/207/37 75/208/37 76/209/37 68/210/37
f 68/210/41 76/209/41 77/211/41 69/212/41
f 69/213/40 77/214/40 78/215/40 70/216/40
f 70/216/36 78/215/36 79/217/36 71/218/36
f 71/219/39 79/220/39 80/221/39 72/222/39
f 72/223/27 80/224/27 73/202/27 65/201/27
f 112/225/27 98/226/27 82/227/27 81/228/27
f 111/229/39 99/230/39 98/231/39 112/232/39
f 110/187/36 100/233/36 99/234/36 111/188/36
f 109/196/40 101/235/40 100/233/40 110/187/40
f 108/236/41 102/237/41 101/238/41 109/239/41
f 107/240/37 103/241/37 102/237/37 108/236/37
f 106/242/42 104/243/42 103/244/42 107/245/42
f 81/228/38 82/227/38 104/243/38 106/242/38
f 97/246/38 105/247/38 83/248/38 84/249/38
f 84/249/42 83/248/42 85/250/42 86/251/42
f 86/252/37 85/253/37 87/254/37 88/255/37
f 88/255/41 87/254/41 89/256/41 90/257/41
f 90/258/40 89/259/40 91/260/40 92/261/40
f 92/261/36 91/260/36 93/262/36 94/263/36
f 94/264/39 93/265/39 95/266/39 96/267/39
f 96/268/27 95/269/27 105/247/27 97/246/27
f 66/46/59 67/270/59 85/271/59 83/47/59
f 23/272/60 25/273/60 101/274/60 102/275/60
f 67/270/61 68/276/61 87/277/61 85/271/61
f 24/278/62 22/279/62 86/280/62 88/281/62
f 74/282/63 73/81/63 81/84/63 106/283/63
f 68/284/64 69/285/64 89/256/64 87/254/64
f 21/286/65 23/287/65 102/288/65 103/289/65
f 75/290/66 74/282/66 106/283/66 107/291/66
f 69/292/67 70/293/67 91/260/67 89/259/67
f 22/279/68 20/197/68 84/200/68 86/280/68
f 76/294/69 75/290/69 107/291/69 108/295/69
f 70/296/70 71/297/70 93/298/70 91/299/70
f 19/190/71 21/286/71 103/289/71 104/191/71
f 77/195/72 76/300/72 108/301/72 109/196/72
f 17/198/73 32/181/73 96/184/73 97/199/73
f 71/302/74 72/193/74 95/194/74 93/303/74
