# Blender v3.0.0 OBJ File: 'can.blend'
# www.blender.org
mtllib can.mtl
o Cylinder
v -0.388928 -0.015553 -0.921268
v -0.388928 1.604883 -0.921268
v 0.376422 -0.015553 -0.926448
v 0.376422 1.604883 -0.926448
v 0.921268 -0.015553 -0.388928
v 0.921268 1.604883 -0.388928
v 0.926448 -0.015553 0.376422
v 0.926448 1.604883 0.376422
v 0.388928 -0.015553 0.921268
v 0.388928 1.604883 0.921268
v -0.376422 -0.015553 0.926448
v -0.376422 1.604883 0.926448
v -0.921268 -0.015553 0.388928
v -0.921268 1.604883 0.388928
v -0.926449 -0.015553 -0.376422
v -0.926449 1.604883 -0.376422
v 0.294191 1.899440 -0.724063
v -0.303965 1.899440 -0.720014
v 0.720014 1.899440 -0.303965
v 0.724063 1.899440 0.294191
v 0.303965 1.899440 0.720014
v -0.294191 1.899440 0.724063
v -0.720014 1.899440 0.303965
v -0.724063 1.899440 -0.294191
v 0.104824 1.910988 -0.504542
v -0.094796 1.910988 -0.502592
v 0.300662 1.910988 -0.291201
v 0.302611 1.910988 -0.108158
v 0.096638 1.910988 0.096889
v -0.099299 1.910988 0.098838
v -0.296978 1.910988 -0.103451
v -0.298927 1.910988 -0.286494
v -0.099972 0.299444 0.924577
v 0.100824 0.299444 0.923218
v 0.100824 0.496685 0.923218
v -0.098195 0.496685 0.924565
v -0.094136 0.299444 1.802146
v 0.106659 0.299444 1.800787
v 0.106659 0.496685 1.800787
v -0.092359 0.496685 1.802134
v -0.083991 1.202864 3.502076
v 0.116804 1.201505 3.502078
v 0.116804 1.201255 3.201773
v -0.082214 1.202602 3.201772
v -0.101116 1.907231 0.301619
v 0.103538 1.907201 0.301619
v 0.103538 1.903512 0.501156
v -0.097279 1.903537 0.501156
v -0.101044 2.503697 0.301112
v 0.103611 2.503667 0.301112
v 0.103611 2.499978 0.500650
v -0.097206 2.500003 0.500650
v -0.095593 0.896550 -0.923254
v 0.100889 0.896551 -0.924584
v 0.102569 0.698389 -0.924595
v -0.097272 0.701748 -0.923242
v -0.099012 0.896550 -1.503650
v 0.097470 0.896551 -1.504980
v 0.099149 0.698389 -1.504992
v -0.100691 0.701748 -1.503639
v -0.103738 1.294845 -1.909933
v 0.092744 1.296175 -1.909946
v 0.094423 1.294215 -2.108098
v -0.105418 1.292895 -2.104726
v -0.100944 2.878209 -0.095189
v 0.103710 2.878209 -0.095159
v 0.103710 3.077761 -0.092337
v -0.097107 3.077761 -0.092362
v -0.111483 2.498268 -1.921317
v 0.084999 2.499598 -1.921330
v 0.086678 2.497638 -2.119482
v -0.113163 2.496319 -2.116110
v -0.100765 2.897078 -1.306459
v 0.103889 2.897078 -1.306429
v 0.103889 3.096630 -1.303607
v -0.096928 3.096630 -1.303632
vt 0.085250 0.683772
vt 0.085250 0.457369
vt 0.192185 0.457369
vt 0.192185 0.683772
vt 0.153922 0.584022
vt 0.153688 0.556335
vt 0.126235 0.556335
vt 0.126001 0.583553
vt 0.267855 0.457312
vt 0.267855 0.683716
vt 0.647325 0.277271
vt 0.647325 0.050868
vt 0.754259 0.050868
vt 0.754259 0.277271
vt 0.830217 0.050848
vt 0.830217 0.277251
vt 0.606381 0.961279
vt 0.646635 0.889711
vt 0.646635 0.917269
vt 0.674690 0.917269
vt 0.713315 0.961280
vt 0.713315 0.734877
vt 0.789185 0.734683
vt 0.789185 0.961085
vt 0.742707 0.009706
vt 0.802072 0.009691
vt 0.511261 0.416036
vt 0.511258 0.642430
vt 0.404323 0.642430
vt 0.404326 0.416036
vt 0.009691 0.683715
vt 0.009691 0.457312
vt 0.860716 0.491600
vt 0.860716 0.598534
vt 0.786223 0.674198
vt 0.680874 0.674268
vt 0.606381 0.598704
vt 0.606381 0.491769
vt 0.680874 0.416106
vt 0.786223 0.416036
vt 0.009691 0.845754
vt 0.009691 0.762202
vt 0.052756 0.803127
vt 0.051855 0.844638
vt 0.499625 0.683830
vt 0.416050 0.683830
vt 0.163063 0.934068
vt 0.056155 0.934011
vt 0.068771 0.904866
vt 0.152324 0.904910
vt 0.606381 0.734876
vt 0.618156 0.693649
vt 0.701731 0.693650
vt 0.328836 0.643091
vt 0.357053 0.684346
vt 0.096951 0.416193
vt 0.180526 0.416193
vt 0.659133 0.009706
vt 0.587000 0.643091
vt 0.558820 0.684346
vt 0.962351 0.538584
vt 0.990158 0.538622
vt 0.989834 0.737295
vt 0.962028 0.737440
vt 0.068771 0.703153
vt 0.152324 0.703198
vt 0.110407 0.784425
vt 0.070906 0.785127
vt 0.211405 0.762309
vt 0.211405 0.845861
vt 0.130065 0.844444
vt 0.129699 0.803850
vt 0.071513 0.864425
vt 0.111915 0.862444
vt 0.130107 0.764106
vt 0.150456 0.784193
vt 0.674442 0.889711
vt 0.916319 0.416036
vt 0.942647 0.424177
vt 0.906425 0.541317
vt 0.880097 0.533177
vt 0.962502 0.416036
vt 0.990309 0.416073
vt 0.959870 0.386259
vt 0.931815 0.386292
vt 0.931607 0.265496
vt 0.959662 0.265463
vt 0.912225 0.382880
vt 0.885902 0.391040
vt 0.849598 0.273923
vt 0.875922 0.265763
vt 0.990309 0.779230
vt 0.962255 0.779376
vt 0.931815 0.009691
vt 0.959870 0.009812
vt 0.899834 0.009691
vt 0.912225 0.049773
vt 0.942647 0.757407
vt 0.930285 0.797502
vt 0.545832 0.375674
vt 0.564204 0.396654
vt 0.449078 0.385383
vt 0.470133 0.367097
vt 0.170019 0.764375
vt 0.150051 0.744664
vt 0.609572 0.321993
vt 0.627944 0.342973
vt 0.309455 0.063434
vt 0.291064 0.084393
vt 0.227372 0.030650
vt 0.245763 0.009691
vt 0.375897 0.703727
vt 0.403954 0.703776
vt 0.403810 0.787112
vt 0.375752 0.787064
vt 0.452138 0.839353
vt 0.423545 0.839425
vt 0.423335 0.756088
vt 0.451928 0.756017
vt 0.328919 0.703916
vt 0.356371 0.703727
vt 0.356288 0.759709
vt 0.328836 0.759713
vt 0.694159 0.296739
vt 0.722082 0.296652
vt 0.722082 0.376542
vt 0.694159 0.376629
vt 0.674777 0.377725
vt 0.647325 0.377702
vt 0.647325 0.296652
vt 0.674778 0.296676
vt 0.627944 0.082607
vt 0.607140 0.100158
vt 0.554848 0.038178
vt 0.575652 0.020626
vt 0.288311 0.306390
vt 0.309455 0.324264
vt 0.257106 0.386196
vt 0.235962 0.368322
vt 0.458370 0.009691
vt 0.475712 0.030669
vt 0.346178 0.137856
vt 0.328836 0.116878
vt 0.139131 0.396812
vt 0.156794 0.375492
vt 0.279883 0.703153
vt 0.307802 0.703759
vt 0.307551 0.786290
vt 0.279627 0.786337
vt 0.837969 0.979158
vt 0.809913 0.979381
vt 0.808567 0.810327
vt 0.836623 0.810104
vt 0.151666 0.039153
vt 0.130627 0.020853
vt 0.403954 0.868052
vt 0.375897 0.868000
vt 0.423545 0.703803
vt 0.452138 0.703727
vt 0.837969 0.693896
vt 0.837948 0.721107
vt 0.810497 0.721326
vt 0.810045 0.693649
vt 0.009691 0.289487
vt 0.027353 0.268167
vt 0.307802 0.954431
vt 0.279878 0.954478
vt 0.356371 0.927855
vt 0.328919 0.927859
vt 0.499401 0.704261
vt 0.499401 0.732318
vt 0.471519 0.732321
vt 0.471519 0.703727
vt 0.231653 0.703153
vt 0.260246 0.703317
vt 0.259380 0.869586
vt 0.230787 0.869423
vt 0.337930 0.257743
vt 0.358986 0.239457
vt 0.040404 0.166700
vt 0.019365 0.148400
vt 0.260246 0.963787
vt 0.232795 0.963605
vn -0.0068 0.0000 -1.0000
vn 0.7023 0.0000 -0.7119
vn 1.0000 0.0000 -0.0068
vn 0.7119 0.0000 0.7023
vn 0.0068 0.0000 1.0000
vn -0.7023 0.0000 0.7119
vn 0.5873 0.5652 0.5794
vn -1.0000 0.0000 0.0068
vn -0.7119 0.0000 -0.7023
vn 0.0000 -1.0000 -0.0000
vn -0.0270 0.9993 -0.0263
vn -0.8249 0.5652 0.0056
vn 0.5794 0.5652 -0.5873
vn 0.0056 0.5652 0.8249
vn -0.5873 0.5652 -0.5794
vn -0.0056 0.5652 -0.8249
vn 0.8249 0.5652 -0.0056
vn -0.5794 0.5652 0.5873
vn 0.0015 0.8931 -0.4498
vn -0.0140 0.9998 0.0140
vn 0.0140 0.9998 0.0139
vn 0.0276 0.9993 -0.0271
vn -0.0271 0.9996 0.0002
vn 0.0002 0.9998 0.0185
vn 0.0276 0.9996 -0.0002
vn -0.0004 0.9986 -0.0528
vn 1.0000 0.0000 -0.0066
vn -0.0000 1.0000 0.0000
vn -0.9999 0.0090 0.0066
vn 0.0068 1.0000 -0.0008
vn -0.0014 -0.8833 0.4689
vn -0.9999 0.0156 -0.0016
vn 1.0000 -0.0056 -0.0037
vn -0.9996 0.0197 0.0188
vn 0.0001 0.9998 0.0185
vn -0.9998 0.0001 0.0192
vn 1.0000 -0.0001 -0.0000
vn 0.0000 0.0008 1.0000
vn -0.0000 -0.0008 -1.0000
vn -0.0000 0.7129 0.7012
vn -0.0168 -0.9999 0.0001
vn -0.9999 0.0086 0.0059
vn 0.9999 0.0085 -0.0059
vn -0.9999 -0.0064 0.0087
vn -0.9999 0.0039 0.0133
vn 0.9999 0.0132 0.0036
vn -0.0119 -0.7122 -0.7019
vn -0.0000 0.9999 0.0156
vn 1.0000 -0.0001 0.0001
vn 0.0000 0.7162 0.6979
vn -0.0000 -0.7268 -0.6869
vn -0.0068 0.9999 -0.0099
vn 0.9999 0.0065 0.0084
vn -0.0168 -0.0096 -0.9998
vn 0.0000 0.0095 1.0000
vn 0.0001 0.0142 -0.9999
vn 0.0000 -0.9999 -0.0156
vn -0.9998 0.0192 0.0002
vn 1.0000 -0.0000 0.0001
vn 0.0028 -0.8394 0.5435
vn -0.9998 0.0174 0.0067
vn 0.9997 -0.0198 -0.0114
vn -0.0076 0.8052 -0.5929
usemtl None
s off
f 1/1/1 2/2/1 4/3/1 3/4/1 55/5/1 54/6/1 53/7/1 56/8/1
f 3/4/2 4/3/2 6/9/2 5/10/2
f 5/11/3 6/12/3 8/13/3 7/14/3
f 7/14/4 8/13/4 10/15/4 9/16/4
f 9/17/5 35/18/5 34/19/5 33/20/5 11/21/5
f 11/21/6 12/22/6 14/23/6 13/24/6
f 10/15/7 8/13/7 20/25/7 21/26/7
f 13/27/8 14/28/8 16/29/8 15/30/8
f 15/31/9 16/32/9 2/2/9 1/1/9
f 1/33/10 3/34/10 5/35/10 7/36/10 9/37/10 11/38/10 13/39/10 15/40/10
f 18/41/11 24/42/11 32/43/11 26/44/11
f 16/29/12 14/28/12 23/45/12 24/46/12
f 6/47/13 4/48/13 17/49/13 19/50/13
f 12/22/14 10/51/14 21/52/14 22/53/14
f 2/54/15 16/29/15 24/46/15 18/55/15
f 4/3/16 2/2/16 18/56/16 17/57/16
f 8/13/17 6/12/17 19/58/17 20/25/17
f 14/28/18 12/59/18 22/60/18 23/45/18
f 39/61/19 40/62/19 44/63/19 43/64/19
f 23/65/20 22/66/20 30/67/20 31/68/20
f 21/69/21 20/70/21 28/71/21 29/72/21
f 19/50/22 17/49/22 25/73/22 27/74/22
f 24/42/23 23/65/23 31/68/23 32/43/23
f 22/66/24 45/75/24 46/76/24 21/69/24 29/72/24 30/67/24
f 20/70/25 19/50/25 27/74/25 28/71/25
f 17/49/26 18/41/26 26/44/26 25/73/26
f 11/21/5 33/20/5 36/77/5 35/18/5 9/17/5 10/51/5 12/22/5
f 34/78/27 35/79/27 39/80/27 38/81/27
f 35/82/28 36/83/28 40/62/28 39/61/28
f 33/84/10 34/85/10 38/86/10 37/87/10
f 36/88/29 33/89/29 37/90/29 40/91/29
f 44/63/30 41/92/30 42/93/30 43/64/30
f 37/87/31 38/86/31 42/94/31 41/95/31
f 40/91/32 37/90/32 41/96/32 44/97/32
f 38/81/33 39/80/33 43/98/33 42/99/33
f 49/100/34 52/101/34 68/102/34 65/103/34
f 21/69/35 46/76/35 47/104/35 48/105/35 45/75/35 22/66/35
f 45/106/36 48/107/36 52/101/36 49/100/36
f 47/108/37 46/109/37 50/110/37 51/111/37
f 48/112/38 47/113/38 51/114/38 52/115/38
f 46/116/39 45/117/39 49/118/39 50/119/39
f 57/120/40 58/121/40 62/122/40 61/123/40
f 55/124/41 56/125/41 60/126/41 59/127/41
f 56/8/1 55/5/1 3/4/1 1/1/1
f 53/128/28 54/129/28 58/130/28 57/131/28
f 56/132/42 53/133/42 57/134/42 60/135/42
f 54/136/43 55/137/43 59/138/43 58/139/43
f 64/140/44 61/141/44 69/142/44 72/143/44
f 60/135/45 57/134/45 61/141/45 64/140/45
f 58/139/46 59/138/46 63/144/46 62/145/46
f 59/146/47 60/147/47 64/148/47 63/149/47
f 68/150/48 67/151/48 75/152/48 76/153/48
f 51/111/49 50/110/49 66/154/49 67/155/49
f 52/115/50 51/114/50 67/156/50 68/157/50
f 50/119/51 49/118/51 65/158/51 66/159/51
f 72/160/52 69/161/52 70/162/52 71/163/52
f 62/145/53 63/144/53 71/164/53 70/165/53
f 63/149/54 64/148/54 72/166/54 71/167/54
f 61/123/55 62/122/55 70/168/55 69/169/55
f 76/170/56 75/171/56 74/172/56 73/173/56
f 66/174/57 65/175/57 73/176/57 74/177/57
f 65/103/58 68/102/58 76/178/58 73/179/58
f 67/155/59 66/154/59 74/180/59 75/181/59
f 74/177/60 73/176/60 69/182/60 70/183/60
f 76/178/61 72/143/61 69/142/61 73/179/61
f 71/164/62 75/181/62 74/180/62 70/165/62
f 76/153/63 75/152/63 71/163/63 72/160/63
