# Blender v3.0.0 OBJ File: 'Chair.blend'
# www.blender.org
mtllib Chair.mtl
o Cylinder
v 0.000000 3.680721 -1.000000
v 0.000000 3.799338 -1.000000
v 0.707107 3.680721 -0.707107
v 0.707107 3.799338 -0.707107
v 1.000000 3.680721 0.000000
v 1.000000 3.799338 0.000000
v 0.707107 3.680721 0.707107
v 0.707107 3.799338 0.707107
v -0.000000 3.680721 1.000000
v -0.000000 3.799338 1.000000
v -0.707107 3.680721 0.707107
v -0.707107 3.799338 0.707107
v -1.000000 3.680721 -0.000000
v -1.000000 3.799338 -0.000000
v -0.707107 3.680721 -0.707107
v -0.707107 3.799338 -0.707107
v -0.093212 3.680721 0.961390
v -0.003823 3.680721 0.892486
v 0.089670 3.680721 0.962858
v -0.739403 3.680721 -0.629137
v -0.642198 3.680721 -0.733993
v -0.648270 3.680721 -0.662943
v 0.732069 3.680721 -0.646842
v 0.658318 3.680721 -0.727316
v 0.669267 3.680721 -0.665256
v 0.658318 0.000913 -0.727316
v 0.707107 0.000913 -0.707107
v 0.089670 0.000913 0.962858
v -0.000000 0.000913 1.000000
v -0.739403 0.000913 -0.629137
v -0.707107 0.000913 -0.707107
v -0.093212 0.000913 0.961390
v -0.003823 0.000913 0.892486
v -0.642198 0.000913 -0.733993
v -0.648270 0.000913 -0.662943
v 0.732069 0.000913 -0.646842
v 0.669267 0.000913 -0.665256
v -0.093212 1.700130 0.961390
v -0.000000 1.700130 1.000000
v 0.089670 1.700130 0.962858
v -0.003823 1.700130 0.892486
v -0.000000 1.901682 1.000000
v -0.003823 1.901682 0.892486
v -0.093212 1.901682 0.961390
v 0.089670 1.901682 0.962858
v 0.707107 1.699124 -0.707107
v 0.658318 1.699124 -0.727316
v 0.669267 1.699124 -0.665256
v 0.732069 1.699124 -0.646842
v 0.658318 1.903640 -0.727316
v 0.669267 1.903640 -0.665256
v 0.732069 1.903640 -0.646842
v 0.707107 1.903640 -0.707107
v -0.648270 1.698350 -0.662943
v -0.642198 1.698350 -0.733993
v -0.739403 1.698350 -0.629137
v -0.707107 1.698350 -0.707107
v -0.642198 1.899619 -0.733993
v -0.648270 1.899619 -0.662943
v -0.739403 1.899619 -0.629137
v -0.707107 1.899619 -0.707107
vt 0.164053 0.965752
vt 0.164053 0.996777
vt 0.152249 0.996777
vt 0.152249 0.965752
vt 0.153063 0.965752
vt 0.068194 0.034250
vt 0.068194 0.003223
vt 0.078289 0.003223
vt 0.078289 0.034250
vt 0.069054 0.034250
vt 0.089847 0.003223
vt 0.089847 0.034250
vt 0.117433 0.965752
vt 0.117433 0.996777
vt 0.108077 0.996777
vt 0.108077 0.965752
vt 0.109264 0.965752
vt 0.096293 0.996777
vt 0.096293 0.965752
vt 0.106524 0.965752
vt 0.003330 0.034250
vt 0.003330 0.003223
vt 0.011813 0.003223
vt 0.011813 0.034250
vt 0.330168 0.453410
vt 0.144563 0.453413
vt 0.013320 0.322164
vt 0.013320 0.136543
vt 0.144563 0.005288
vt 0.330168 0.005284
vt 0.461412 0.136533
vt 0.461412 0.322155
vt 0.023685 0.003223
vt 0.023685 0.034250
vt 0.022376 0.034250
vt 0.031993 0.003223
vt 0.031993 0.034250
vt 0.024448 0.034250
vt 0.993665 0.860106
vt 0.875109 0.978660
vt 0.860632 0.975452
vt 0.850974 0.987447
vt 0.686234 0.987447
vt 0.558893 0.860106
vt 0.558893 0.702855
vt 0.582608 0.688867
vt 0.575679 0.663230
vt 0.686234 0.552675
vt 0.866323 0.552675
vt 0.979623 0.665975
vt 0.978766 0.688829
vt 0.993665 0.696548
vt 0.643047 0.674594
vt 0.643930 0.671501
vt 0.646516 0.671707
vt 0.644918 0.674614
vt 0.973901 0.819760
vt 0.973890 0.823244
vt 0.211786 0.814981
vt 0.211797 0.811497
vt 0.646599 0.645836
vt 0.645783 0.651159
vt 0.642667 0.651125
vt 0.643993 0.647043
vt 0.211135 0.394049
vt 0.211150 0.389142
vt 0.974056 0.397414
vt 0.974041 0.402321
vt 0.211132 0.536156
vt 0.211140 0.533584
vt 0.973594 0.541851
vt 0.973586 0.544424
vt 0.643702 0.697461
vt 0.644803 0.694975
vt 0.646439 0.695661
vt 0.645439 0.697480
vt 0.210485 0.596901
vt 0.210503 0.591227
vt 0.973410 0.599499
vt 0.973391 0.605173
vt 0.921067 0.795841
vt 0.921058 0.798463
vt 0.158607 0.790195
vt 0.158616 0.787574
vt 0.921800 0.707950
vt 0.921785 0.712717
vt 0.158882 0.704445
vt 0.158897 0.699678
vt 0.211768 0.447834
vt 0.211780 0.443973
vt 0.973881 0.452237
vt 0.973869 0.456098
vt 0.211205 0.513222
vt 0.211215 0.510016
vt 0.973670 0.518283
vt 0.973659 0.521489
vt 0.920807 0.768443
vt 0.920794 0.772578
vt 0.158690 0.764315
vt 0.158703 0.760179
vt 0.920691 0.913177
vt 0.920682 0.915894
vt 0.158231 0.907627
vt 0.158240 0.904910
vt 0.920786 0.774987
vt 0.158682 0.766724
vt 0.211123 0.397797
vt 0.974029 0.406069
vt 0.120633 0.396816
vt 0.120645 0.393068
vt 0.123103 0.061866
vt 0.123088 0.066633
vt 0.032597 0.065651
vt 0.032613 0.060885
vt 0.119995 0.595920
vt 0.120013 0.590245
vt 0.120660 0.388161
vt 0.115982 0.393017
vt 0.115998 0.388110
vt 0.914740 0.396771
vt 0.914724 0.401678
vt 0.115333 0.595869
vt 0.115351 0.590195
vt 0.914093 0.598855
vt 0.914075 0.604530
vt 0.921845 0.070526
vt 0.921830 0.075293
vt 0.115970 0.396765
vt 0.914712 0.405426
vt 0.123327 0.267107
vt 0.123318 0.269825
vt 0.031495 0.268829
vt 0.031504 0.266112
vt 0.119386 0.512226
vt 0.119396 0.509020
vt 0.123702 0.149771
vt 0.123694 0.152393
vt 0.031871 0.151397
vt 0.031880 0.148776
vt 0.119312 0.535161
vt 0.119320 0.532588
vt 0.115527 0.535120
vt 0.115535 0.532547
vt 0.913400 0.541198
vt 0.913392 0.543771
vt 0.921564 0.158422
vt 0.921555 0.161044
vt 0.115601 0.512185
vt 0.115611 0.508978
vt 0.913476 0.517630
vt 0.913465 0.520836
vt 0.921188 0.275758
vt 0.921179 0.278476
vt 0.121973 0.126493
vt 0.121965 0.128901
vt 0.031599 0.127922
vt 0.031607 0.125513
vt 0.121986 0.122357
vt 0.031620 0.121377
vt 0.121402 0.446854
vt 0.121415 0.442994
vt 0.175076 0.173675
vt 0.175065 0.177159
vt 0.084703 0.176179
vt 0.084714 0.172695
vt 0.974745 0.182345
vt 0.974734 0.185829
vt 0.115810 0.446793
vt 0.115822 0.442933
vt 0.915494 0.451604
vt 0.915482 0.455464
vt 0.921651 0.131028
vt 0.921638 0.135163
vt 0.921630 0.137572
vt 0.824359 0.737008
vt 0.825179 0.731687
vt 0.870014 0.732742
vt 0.870079 0.737503
vt 0.175767 0.247314
vt 0.085277 0.246332
vt 0.660850 0.738381
vt 0.661671 0.733060
vt 0.706505 0.734115
vt 0.706569 0.738877
vt 0.972172 0.730818
vt 0.972972 0.736359
vt 0.926823 0.735859
vt 0.926998 0.732668
vt 0.869362 0.706271
vt 0.870161 0.711813
vt 0.824010 0.711312
vt 0.824185 0.708122
vt 0.973055 0.710465
vt 0.881233 0.709469
vt 0.881956 0.624544
vt 0.972448 0.625525
vt 0.646664 0.625474
vt 0.611579 0.625094
vt 0.611878 0.622055
vt 0.646510 0.621991
vt 0.813301 0.735040
vt 0.778198 0.734659
vt 0.778497 0.731620
vt 0.813147 0.731557
vt 0.869896 0.685915
vt 0.778074 0.684919
vt 0.780076 0.623440
vt 0.870440 0.624419
vn 0.3827 -0.0000 -0.9239
vn 0.9239 -0.0000 -0.3827
vn 0.9239 0.0000 0.3827
vn 0.3827 -0.0000 0.9239
vn -0.3827 0.0000 0.9239
vn -0.9239 0.0000 0.3827
vn 0.0000 1.0000 -0.0000
vn -0.9239 0.0000 -0.3827
vn -0.3827 0.0000 -0.9239
vn 0.0000 -1.0000 0.0000
vn 0.9964 0.0000 0.0852
vn 0.6014 0.0000 -0.7990
vn -0.9848 0.0000 0.1737
vn -0.6105 0.0000 -0.7920
vn 0.3478 0.0000 0.9376
vn -0.2814 0.0000 0.9596
vn -0.0006 1.0000 -0.0011
vn 0.9238 0.0000 -0.3828
vn -0.0005 1.0000 -0.0009
vn -0.9265 0.0000 0.3764
vn -0.9180 0.0000 -0.3966
vn 0.0003 1.0000 -0.0005
vn -0.0006 1.0000 0.0010
vn -0.9288 0.0000 -0.3707
vn 0.0018 0.0000 1.0000
vn -0.0006 1.0000 0.0000
vn -0.0031 1.0000 0.0001
vn -0.0051 0.0000 1.0000
usemtl None
s off
f 1/1/1 2/2/1 4/3/1 3/4/1 24/5/1
f 3/6/2 4/7/2 6/8/2 5/9/2 23/10/2
f 5/9/3 6/8/3 8/11/3 7/12/3
f 7/13/4 8/14/4 10/15/4 9/16/4 19/17/4
f 9/16/5 10/15/5 12/18/5 11/19/5 17/20/5
f 11/21/6 12/22/6 14/23/6 13/24/6
f 4/25/7 2/26/7 16/27/7 14/28/7 12/29/7 10/30/7 8/31/7 6/32/7
f 13/24/8 14/23/8 16/33/8 15/34/8 20/35/8
f 15/34/9 16/33/9 2/36/9 1/37/9 21/38/9
f 1/39/10 24/40/10 25/41/10 23/42/10 5/43/10 7/44/10 19/45/10 18/46/10 17/47/10 11/48/10 13/49/10 20/50/10 22/51/10 21/52/10
f 34/53/10 35/54/10 30/55/10 31/56/10
f 55/57/11 54/58/11 35/59/11 34/60/11
f 32/61/10 33/62/10 28/63/10 29/64/10
f 39/65/5 38/66/5 32/67/5 29/68/5
f 47/69/1 46/70/1 27/71/1 26/72/1
f 36/73/10 37/74/10 26/75/10 27/76/10
f 41/77/12 40/78/12 28/79/12 33/80/12
f 48/81/13 47/82/13 26/83/13 37/84/13
f 38/85/14 41/86/14 33/87/14 32/88/14
f 54/89/15 56/90/15 30/91/15 35/92/15
f 49/93/16 48/94/16 37/95/16 36/96/16
f 56/97/8 57/98/8 31/99/8 30/100/8
f 46/101/2 49/102/2 36/103/2 27/104/2
f 57/98/9 55/105/9 34/106/9 31/99/9
f 40/107/4 39/65/4 29/68/4 28/108/4
f 45/109/4 42/110/4 39/65/4 40/107/4
f 44/111/14 43/112/14 41/113/14 38/114/14
f 43/115/12 45/116/12 40/78/12 41/77/12
f 42/110/5 44/117/5 38/66/5 39/65/5
f 9/118/5 17/119/5 44/120/5 42/121/5
f 18/122/12 19/123/12 45/124/12 43/125/12
f 17/126/14 18/127/14 43/112/14 44/111/14
f 19/128/4 9/118/4 42/121/4 45/129/4
f 53/130/2 52/131/2 49/132/2 46/133/2
f 52/134/16 51/135/16 48/94/16 49/93/16
f 51/136/13 50/137/13 47/138/13 48/139/13
f 50/140/1 53/141/1 46/70/1 47/69/1
f 24/142/1 3/143/1 53/144/1 50/145/1
f 25/146/13 24/147/13 50/137/13 51/136/13
f 23/148/16 25/149/16 51/150/16 52/151/16
f 3/152/2 23/153/2 52/131/2 53/130/2
f 61/154/9 58/155/9 55/156/9 57/157/9
f 60/158/8 61/154/8 57/157/8 56/159/8
f 59/160/15 60/161/15 56/90/15 54/89/15
f 58/162/11 59/163/11 54/164/11 55/165/11
f 21/166/11 22/167/11 59/163/11 58/162/11
f 22/168/15 20/169/15 60/170/15 59/171/15
f 20/172/8 15/173/8 61/154/8 60/158/8
f 15/173/9 21/174/9 58/155/9 61/154/9
f 44/175/17 43/176/17 59/177/17 60/178/17
f 43/179/18 41/180/18 54/164/18 59/163/18
f 38/181/19 41/182/19 54/183/19 56/184/19
f 38/114/20 44/111/20 60/158/20 56/159/20
f 51/136/21 48/139/21 41/113/21 43/112/21
f 41/185/22 40/186/22 49/187/22 48/188/22
f 43/189/23 45/190/23 52/191/23 51/192/23
f 52/193/24 49/194/24 40/195/24 45/196/24
f 48/94/25 51/135/25 59/160/25 54/89/25
f 54/197/26 48/198/26 47/199/26 55/200/26
f 59/201/27 51/202/27 50/203/27 58/204/27
f 47/205/28 50/206/28 58/207/28 55/208/28
