# Blender v3.0.0 OBJ File: 'pc.blend'
# www.blender.org
mtllib pc.mtl
o Cube
v 1.136172 1.151342 -1.000000
v 1.136172 0.001755 -1.000000
v 1.136172 1.151342 1.000000
v 1.136172 0.001755 1.000000
v -1.196281 1.151342 -1.000000
v -1.196281 0.001755 -1.000000
v -1.196281 1.151342 1.000000
v -1.196281 0.001755 1.000000
v 0.718552 1.167581 0.582381
v -0.778662 1.167581 0.582381
v 0.718552 1.167581 -0.582381
v -0.778662 1.167581 -0.582381
v 0.718552 1.288916 0.582381
v -0.778662 1.288916 0.582381
v 0.718552 1.288916 -0.582381
v -0.778662 1.288916 -0.582381
v 0.986745 1.320725 0.850573
v -1.046854 1.320725 0.850573
v 0.986745 1.320725 -0.850573
v -1.046854 1.320725 -0.850573
v 0.769424 2.805230 0.808957
v -0.829534 2.805230 0.808957
v 0.769424 2.594384 -0.844098
v -0.829534 2.594384 -0.844098
v -1.196281 0.001755 1.521874
v -1.196281 0.503612 1.521874
v 1.136172 0.503612 1.521874
v 1.136172 0.001755 1.521874
v -1.196281 0.001755 2.739645
v -1.196281 0.320878 2.739645
v 1.136172 0.320878 2.739645
v 1.136172 0.001755 2.739645
v 0.991161 1.036640 1.107892
v -1.051270 1.036640 1.107892
v 0.991161 0.633436 1.432751
v -1.051270 0.633436 1.432751
v 0.991161 1.080867 1.162785
v -1.051270 1.080867 1.162785
v 0.991161 0.677663 1.487644
v -1.051270 0.677663 1.487644
v 0.631331 1.510520 0.837731
v -0.695150 1.510520 0.837731
v 0.609767 2.498331 0.806607
v -0.669877 2.498331 0.806607
v 0.631331 1.518041 0.718919
v -0.695150 1.518041 0.718919
v 0.609767 2.505852 0.687796
v -0.669877 2.505852 0.687796
v -1.149475 -0.012232 -0.903328
v -1.149475 -0.012232 1.003060
v 1.089366 -0.012232 -0.903328
v 1.089366 -0.012232 1.003060
v -1.149475 -0.012232 1.500507
v 1.089366 -0.012232 1.500507
v -1.149475 -0.012232 2.661279
v 1.089366 -0.012232 2.661279
v -1.149475 -0.236635 -0.903328
v -1.149475 -0.236635 1.003060
v 1.089366 -0.236635 -0.903328
v 1.089366 -0.236635 1.003060
v -1.149475 -0.236635 1.500507
v 1.089366 -0.236635 1.500507
v -1.149475 -0.236635 2.661279
v 1.089366 -0.236635 2.661279
v 0.768263 0.448717 1.934247
v -0.768263 0.448717 1.959723
v 0.768263 0.316904 2.548427
v -0.768263 0.357698 2.387568
v 0.303510 0.448717 1.934247
v 0.307854 0.316904 2.548427
v 0.178828 0.448717 1.959723
v 0.184575 0.357698 2.387568
v 0.178828 0.502502 1.967401
v -0.768263 0.502502 1.967401
v 0.184575 0.411483 2.395246
v -0.768263 0.411483 2.395246
v 0.768263 0.367193 2.559220
v 0.768263 0.499006 1.945040
v 0.303510 0.499006 1.945040
v 0.307854 0.367193 2.559220
vt 0.886225 0.495336
vt 0.680801 0.495336
vt 0.723695 0.452443
vt 0.843330 0.452443
vt 0.832079 0.409623
vt 0.897094 0.409621
vt 0.884019 0.424516
vt 0.843548 0.424517
vt 0.877596 0.561401
vt 0.759528 0.561402
vt 0.759528 0.355978
vt 0.877596 0.355978
vt 0.216892 0.190150
vt 0.216892 0.395573
vt 0.212084 0.385641
vt 0.212084 0.189832
vt 0.670199 0.373203
vt 0.788268 0.373205
vt 0.788268 0.578629
vt 0.670199 0.578626
vt 0.887888 0.563369
vt 0.770111 0.563369
vt 0.770111 0.357945
vt 0.887888 0.357945
vt 0.803518 0.451778
vt 0.803518 0.571413
vt 0.791087 0.571413
vt 0.791087 0.451778
vt 0.780411 0.374215
vt 0.780411 0.579003
vt 0.737516 0.536110
vt 0.737516 0.416845
vt 0.786615 0.579003
vt 0.786615 0.374215
vt 0.829509 0.416845
vt 0.829509 0.536110
vt 0.680801 0.418509
vt 0.886225 0.418509
vt 0.843330 0.461139
vt 0.723695 0.461139
vt 0.267380 0.547711
vt 0.387015 0.547711
vt 0.414555 0.575258
vt 0.239827 0.575258
vt 0.753930 0.558181
vt 0.753930 0.438547
vt 0.766392 0.438547
vt 0.766392 0.558181
vt 0.772567 0.556306
vt 0.772567 0.436671
vt 0.785029 0.436671
vt 0.785029 0.556306
vt 0.784432 0.538521
vt 0.784432 0.418886
vt 0.796889 0.418886
vt 0.796889 0.538521
vt 0.340246 0.576221
vt 0.492545 0.553900
vt 0.473095 0.590024
vt 0.371763 0.592620
vt 0.387015 0.428077
vt 0.414555 0.400530
vt 0.267380 0.428077
vt 0.239827 0.400530
vt 0.869497 0.588579
vt 0.739412 0.588579
vt 0.739412 0.421017
vt 0.869497 0.421018
vt 0.712791 0.577355
vt 0.712791 0.402627
vt 0.843327 0.424948
vt 0.843327 0.555033
vt 0.752664 0.566146
vt 0.757592 0.391488
vt 0.888580 0.395814
vt 0.905437 0.566146
vt 0.887242 0.376723
vt 0.892139 0.551383
vt 0.739366 0.551383
vt 0.756254 0.381054
vt 0.728278 0.581087
vt 0.728278 0.375664
vt 0.770945 0.399466
vt 0.770945 0.496743
vt 0.770945 0.509550
vt 0.770945 0.557285
vt 0.680042 0.398989
vt 0.798111 0.398991
vt 0.731586 0.452593
vt 0.680042 0.452592
vt 0.700469 0.426058
vt 0.818538 0.426058
vt 0.818538 0.479661
vt 0.766994 0.479661
vt 0.011468 0.011468
vt 0.216892 0.011468
vt 0.212084 0.019514
vt 0.016276 0.019514
vt 0.738302 0.368176
vt 0.771067 0.368176
vt 0.771067 0.573599
vt 0.738302 0.573599
vt 0.798984 0.442749
vt 0.850528 0.442749
vt 0.850528 0.567828
vt 0.817752 0.567828
vt 0.011468 0.136547
vt 0.016276 0.138739
vt 0.709572 0.388611
vt 0.761115 0.388612
vt 0.742347 0.513691
vt 0.709572 0.513691
vt 0.486362 0.795788
vt 0.486362 0.848969
vt 0.479122 0.848968
vt 0.479122 0.795788
vt 0.820810 0.350563
vt 0.820810 0.555986
vt 0.807735 0.541092
vt 0.807735 0.365457
vt 0.946310 0.445251
vt 0.881295 0.445252
vt 0.892764 0.430358
vt 0.933235 0.430357
vt 0.693105 0.473189
vt 0.898528 0.473189
vt 0.883634 0.485162
vt 0.707999 0.485162
vt 0.626139 0.998586
vt 0.000853 0.995650
vt 0.001529 0.853399
vt 0.626814 0.856335
vt 0.423603 0.730551
vt 0.423603 0.554917
vt 0.429232 0.554917
vt 0.429232 0.730551
vt 0.339211 0.795789
vt 0.339211 0.848970
vt 0.331970 0.848970
vt 0.331970 0.795789
vt 0.026362 0.635270
vt 0.201997 0.635270
vt 0.201997 0.640534
vt 0.026362 0.640534
vt 0.413167 0.431275
vt 0.413167 0.532755
vt 0.400994 0.533911
vt 0.400994 0.432432
vt 0.492545 0.728627
vt 0.473095 0.692122
vt 0.340246 0.706306
vt 0.371763 0.689908
vt 0.709572 0.518147
vt 0.709572 0.416049
vt 0.810904 0.418263
vt 0.810904 0.515551
vt 0.448987 0.473108
vt 0.448987 0.575207
vt 0.436760 0.575207
vt 0.436760 0.473108
vt 0.475475 0.579505
vt 0.475475 0.478030
vt 0.487648 0.479186
vt 0.487648 0.580661
vt 0.425069 0.480491
vt 0.425069 0.577778
vt 0.412864 0.577778
vt 0.412864 0.480491
vt 0.422456 0.469174
vt 0.422456 0.664982
vt 0.399416 0.664982
vt 0.399416 0.469174
vt 0.400405 0.658077
vt 0.400405 0.777301
vt 0.377357 0.777301
vt 0.377357 0.658076
vt 0.491325 0.579914
vt 0.491325 0.384106
vt 0.514372 0.384106
vt 0.514372 0.579914
vt 0.011468 0.395573
vt 0.011468 0.190150
vt 0.016276 0.189832
vt 0.016276 0.385641
vt 0.216892 0.136547
vt 0.212084 0.138739
vt 0.219087 0.869751
vt 0.023279 0.869751
vt 0.023279 0.673943
vt 0.219087 0.673943
vt 0.023279 0.622849
vt 0.219087 0.622849
vt 0.023279 0.503624
vt 0.219087 0.503624
vt 0.400405 0.606983
vt 0.377357 0.606983
vt 0.400405 0.411175
vt 0.377357 0.411174
vt 0.429353 0.775333
vt 0.429353 0.579524
vt 0.452343 0.579524
vt 0.452343 0.775333
vt 0.491325 0.750233
vt 0.491325 0.631008
vt 0.514372 0.631008
vt 0.514372 0.750233
vt 0.509298 0.843077
vt 0.509298 0.795788
vt 0.514492 0.795788
vt 0.514492 0.843077
vt 0.896279 0.499882
vt 0.770111 0.499882
vt 0.812779 0.476079
vt 0.876731 0.476079
vt 0.765189 0.424879
vt 0.891357 0.424879
vt 0.871810 0.448682
vt 0.807857 0.448682
vt 0.819994 0.412576
vt 0.819994 0.617999
vt 0.800447 0.594197
vt 0.800447 0.546908
vt 0.800447 0.534245
vt 0.800447 0.436378
vt 0.999166 0.000918
vt 0.999707 0.336870
vt 0.002779 0.329149
vt 0.002773 0.004951
vt 0.837359 0.418947
vt 0.773406 0.418501
vt 0.773406 0.405694
vt 0.837359 0.406285
vt 0.445581 0.529315
vt 0.445581 0.593834
vt 0.439932 0.593835
vt 0.439932 0.529315
vt 0.480976 0.512089
vt 0.480976 0.576611
vt 0.475326 0.576611
vt 0.475326 0.512090
vt 0.280816 0.795789
vt 0.280816 0.893066
vt 0.275221 0.893066
vt 0.275221 0.795789
vt 0.460501 0.617732
vt 0.460501 0.519865
vt 0.466056 0.519865
vt 0.466056 0.617732
vt 0.988694 0.994590
vt 0.688371 0.995643
vt 0.689731 0.626249
vt 0.989721 0.627400
vt 0.450903 0.860307
vt 0.450903 0.795788
vt 0.456186 0.795788
vt 0.456186 0.860307
vt 0.303752 0.860308
vt 0.303752 0.795789
vt 0.309034 0.795789
vt 0.309034 0.860307
vt 0.367378 0.795789
vt 0.367378 0.843524
vt 0.362146 0.843524
vt 0.362146 0.795789
vn 0.0000 0.9992 0.0389
vn -0.0828 0.6252 0.7760
vn -1.0000 0.0000 0.0000
vn -0.2863 -0.9581 0.0000
vn 1.0000 0.0000 0.0000
vn 0.0000 0.0000 -1.0000
vn -0.0389 0.9992 0.0000
vn 0.0389 0.9992 0.0000
vn 0.0000 0.9992 -0.0389
vn -0.1178 -0.9930 0.0000
vn 0.0000 0.0000 1.0000
vn 0.0356 0.0259 0.9990
vn 0.0000 -0.9930 0.1178
vn 0.0000 -0.9930 -0.1178
vn 0.1178 -0.9930 0.0000
vn 0.0000 0.9920 -0.1265
vn 0.0000 0.0051 -1.0000
vn 0.9878 0.1555 -0.0098
vn -0.9878 0.1555 -0.0098
vn 0.0008 0.9919 0.1271
vn 0.0000 -0.9844 0.1757
vn 0.2863 -0.9581 0.0000
vn 0.0000 0.5660 0.8244
vn 0.0828 0.6252 0.7760
vn 0.0000 0.6852 0.7284
vn 0.0000 0.6274 0.7787
vn 0.0000 -0.7787 0.6274
vn 0.0000 0.7787 -0.6274
vn -0.9998 -0.0219 -0.0014
vn 0.0000 0.0675 0.9977
vn -0.0354 0.0260 0.9990
vn 0.0000 -0.0077 1.0000
vn 0.0000 0.0315 0.9995
vn 0.0000 0.9980 0.0632
vn 0.9997 -0.0256 -0.0016
vn 0.0000 -0.9980 -0.0632
vn 0.0000 -0.9897 -0.1432
vn 0.0000 -1.0000 0.0000
vn 0.0000 -0.2098 0.9777
vn -0.0280 0.9852 0.1692
vn 0.0044 0.9864 0.1641
vn 0.0074 0.9972 0.0745
vn 0.0000 0.9781 0.2081
vn 0.0469 0.9769 0.2085
vn 0.9999 0.0019 -0.0130
vn 0.0000 0.1413 -0.9900
vn 0.0000 -0.1413 0.9900
vn 0.0000 0.9777 0.2098
vn -1.0000 -0.0015 0.0068
vn 0.0000 0.2098 -0.9777
usemtl Material
s off
f 7/1/1 3/2/1 9/3/1 10/4/1
f 7/5/2 26/6/2 36/7/2 34/8/2
f 8/9/3 7/10/3 5/11/3 6/12/3
f 8/13/4 6/14/4 49/15/4 50/16/4
f 2/17/5 1/18/5 3/19/5 4/20/5
f 6/21/6 5/22/6 1/23/6 2/24/6
f 11/25/6 12/26/6 16/27/6 15/28/6
f 5/29/7 7/30/7 10/31/7 12/32/7
f 3/33/8 1/34/8 11/35/8 9/36/8
f 1/37/9 5/38/9 12/39/9 11/40/9
f 16/41/10 14/42/10 18/43/10 20/44/10
f 9/45/5 11/46/5 15/47/5 13/48/5
f 12/49/3 10/50/3 14/51/3 16/52/3
f 10/53/11 9/54/11 13/55/11 14/56/11
f 22/57/12 18/58/12 42/59/12 44/60/12
f 14/42/13 13/61/13 17/62/13 18/43/13
f 15/63/14 16/41/14 20/44/14 19/64/14
f 13/61/15 15/63/15 19/64/15 17/62/15
f 23/65/16 24/66/16 22/67/16 21/68/16
f 19/69/17 20/70/17 24/71/17 23/72/17
f 17/73/18 19/74/18 23/75/18 21/76/18
f 20/77/19 18/78/19 22/79/19 24/80/19
f 27/81/20 26/82/20 66/83/20 71/84/20 69/85/20 65/86/20
f 4/87/5 3/88/5 27/89/5 28/90/5
f 7/91/3 8/92/3 25/93/3 26/94/3
f 32/95/21 29/96/21 55/97/21 56/98/21
f 32/99/11 31/100/11 30/101/11 29/102/11
f 26/103/3 25/104/3 29/105/3 30/106/3
f 28/107/22 32/95/22 56/98/22 54/108/22
f 28/109/5 27/110/5 31/111/5 32/112/5
f 35/113/5 33/114/5 37/115/5 39/116/5
f 26/117/23 27/118/23 35/119/23 36/120/23
f 27/121/24 3/122/24 33/123/24 35/124/24
f 3/125/25 7/126/25 34/127/25 33/128/25
f 37/129/26 38/130/26 40/131/26 39/132/26
f 36/133/27 35/134/27 39/135/27 40/136/27
f 34/137/3 36/138/3 40/139/3 38/140/3
f 33/141/28 34/142/28 38/143/28 37/144/28
f 41/145/29 43/146/29 47/147/29 45/148/29
f 18/58/30 17/149/30 41/150/30 42/59/30
f 17/149/31 21/151/31 43/152/31 41/150/31
f 21/151/32 22/57/32 44/60/32 43/152/32
f 46/153/33 45/154/33 47/155/33 48/156/33
f 42/157/34 41/158/34 45/159/34 46/160/34
f 44/161/35 42/162/35 46/163/35 48/164/35
f 43/165/36 44/166/36 48/167/36 47/168/36
f 56/169/11 55/170/11 63/171/11 64/172/11
f 54/173/5 56/174/5 64/175/5 62/176/5
f 50/177/3 49/178/3 57/179/3 58/180/3
f 2/181/22 4/182/22 52/183/22 51/184/22
f 25/185/4 8/13/4 50/16/4 53/186/4
f 29/96/4 25/185/4 53/186/4 55/97/4
f 6/14/37 2/181/37 51/184/37 49/15/37
f 4/182/22 28/107/22 54/108/22 52/183/22
f 57/187/38 59/188/38 60/189/38 58/190/38
f 58/190/38 60/189/38 62/191/38 61/192/38
f 61/192/38 62/191/38 64/193/38 63/194/38
f 52/195/5 54/173/5 62/176/5 60/196/5
f 51/197/5 52/195/5 60/196/5 59/198/5
f 49/199/6 51/200/6 59/201/6 57/202/6
f 55/203/3 53/204/3 61/205/3 63/206/3
f 53/204/3 50/177/3 58/180/3 61/205/3
f 70/207/39 67/208/39 77/209/39 80/210/39
f 31/211/40 27/212/40 65/213/40 67/214/40
f 26/215/41 30/216/41 68/217/41 66/218/41
f 30/219/42 31/220/42 67/221/42 70/222/42 72/223/42 68/224/42
f 75/225/43 73/226/43 74/227/43 76/228/43
f 70/229/44 69/230/44 71/231/44 72/232/44
f 66/233/3 68/234/3 76/235/3 74/236/3
f 72/237/45 71/238/45 73/239/45 75/240/45
f 71/241/46 66/242/46 74/243/46 73/244/46
f 68/245/47 72/246/47 75/247/47 76/248/47
f 78/249/48 79/250/48 80/251/48 77/252/48
f 67/253/5 65/254/5 78/255/5 77/256/5
f 69/257/49 70/258/49 80/259/49 79/260/49
f 65/261/50 69/262/50 79/263/50 78/264/50
